<svg data-name="Component 1 – 1" xmlns="http://www.w3.org/2000/svg" width="119.367" height="52.06"><g data-name="Group 8"><g data-name="Group 6" fill="#e27866"><path data-name="Path 31" d="M4.793 46.218h.643v4.594h-.643v-2.121H2.546v2.121h-.643v-4.594h.643v1.916h2.247z"/><path data-name="Path 32" d="M6.302 51.456a1.116 1.116 0 00.19.063.872.872 0 00.229.03.9.9 0 00.57-.163 1.4 1.4 0 00.372-.527q-.419-.8-.779-1.687a14.775 14.775 0 01-.6-1.807h.663q.073.3.176.643t.229.709q.126.365.272.73c.1.243.2.477.3.7q.252-.7.438-1.38t.351-1.4h.637q-.238.974-.531 1.872t-.63 1.681a3.549 3.549 0 01-.275.514 1.534 1.534 0 01-.316.354 1.134 1.134 0 01-.387.205 1.651 1.651 0 01-.488.067 1.2 1.2 0 01-.152-.01c-.053-.007-.1-.016-.155-.026s-.1-.024-.14-.037a.571.571 0 01-.089-.033z"/><path data-name="Path 33" d="M12.261 50.468a1.689 1.689 0 01-.308.136 1.56 1.56 0 01-.535.083 1.725 1.725 0 01-.586-.1 1.277 1.277 0 01-.481-.309 1.49 1.49 0 01-.325-.52 2.073 2.073 0 01-.12-.743 2.039 2.039 0 01.113-.692 1.549 1.549 0 01.328-.544 1.511 1.511 0 01.527-.358 1.821 1.821 0 01.7-.129 4 4 0 01.752.062c.214.043.395.081.541.116v3.076a1.454 1.454 0 01-.411 1.154 1.857 1.857 0 01-1.242.361 3.333 3.333 0 01-.613-.053 3.48 3.48 0 01-.5-.125l.113-.537a2.735 2.735 0 00.454.129 2.679 2.679 0 00.56.057 1.167 1.167 0 00.792-.219.9.9 0 00.242-.7v-.146zm0-2.559a1.929 1.929 0 00-.249-.05 2.96 2.96 0 00-.421-.023.938.938 0 00-.766.325 1.309 1.309 0 00-.268.862 1.524 1.524 0 00.076.511 1.013 1.013 0 00.206.351.8.8 0 00.3.205.958.958 0 00.348.066 1.393 1.393 0 00.451-.07 1.122 1.122 0 00.325-.162v-2.015z"/><path data-name="Path 34" d="M14.373 46.742a.394.394 0 01-.281-.109.433.433 0 010-.59.418.418 0 01.563 0 .433.433 0 010 .59.4.4 0 01-.282.109zm.312 4.071h-.617v-3.448h.616z"/><path data-name="Path 35" d="M15.687 49.095a2.2 2.2 0 01.133-.8 1.658 1.658 0 01.351-.567 1.437 1.437 0 01.5-.339 1.571 1.571 0 01.583-.113 1.328 1.328 0 011.067.435 2 2 0 01.372 1.322v.1a1.028 1.028 0 01-.007.116h-2.36a1.259 1.259 0 00.312.816 1.141 1.141 0 00.849.279 2.256 2.256 0 00.547-.057 1.945 1.945 0 00.335-.109l.086.517a1.8 1.8 0 01-.395.126 2.832 2.832 0 01-.64.066 2.035 2.035 0 01-.779-.136 1.453 1.453 0 01-.54-.375 1.536 1.536 0 01-.316-.567 2.418 2.418 0 01-.098-.714zm2.367-.339a1.036 1.036 0 00-.207-.684.722.722 0 00-.594-.268.806.806 0 00-.374.083.862.862 0 00-.275.216.984.984 0 00-.176.3 1.518 1.518 0 00-.083.351h1.71z"/><path data-name="Path 36" d="M19.713 47.461q.212-.053.564-.113a4.871 4.871 0 01.809-.059 1.75 1.75 0 01.683.116 1.072 1.072 0 01.434.325 1.255 1.255 0 01.229.5 2.935 2.935 0 01.066.643v1.935h-.616v-1.8a2.942 2.942 0 00-.043-.543.92.92 0 00-.143-.364.56.56 0 00-.266-.2 1.165 1.165 0 00-.411-.063c-.067 0-.135 0-.205.006s-.138.01-.2.017-.122.014-.172.023l-.109.02v2.91h-.62z"/><path data-name="Path 37" d="M23.467 49.095a2.189 2.189 0 01.133-.8 1.665 1.665 0 01.351-.567 1.437 1.437 0 01.5-.339 1.575 1.575 0 01.583-.113 1.329 1.329 0 011.068.435 2 2 0 01.371 1.322v.1a1.036 1.036 0 01-.006.116h-2.36a1.253 1.253 0 00.312.816 1.139 1.139 0 00.849.279 2.26 2.26 0 00.547-.057 1.962 1.962 0 00.335-.109l.086.517a1.812 1.812 0 01-.395.126 2.833 2.833 0 01-.64.066 2.039 2.039 0 01-.779-.136 1.457 1.457 0 01-.54-.375 1.527 1.527 0 01-.315-.567 2.4 2.4 0 01-.1-.714zm2.367-.339a1.037 1.037 0 00-.205-.684.721.721 0 00-.593-.268.81.81 0 00-.374.083.868.868 0 00-.275.216.972.972 0 00-.175.3 1.462 1.462 0 00-.083.351h1.71z"/><path data-name="Path 38" d="M30.009 50.356q1.007 0 1.007-.689a.69.69 0 00-.089-.362.854.854 0 00-.243-.258 1.694 1.694 0 00-.348-.189c-.13-.053-.268-.106-.414-.159a4.2 4.2 0 01-.477-.2 1.649 1.649 0 01-.391-.258 1.09 1.09 0 01-.262-.355 1.165 1.165 0 01-.1-.5 1.152 1.152 0 01.411-.942 1.734 1.734 0 011.134-.339 2.955 2.955 0 01.76.09 1.709 1.709 0 01.5.2l-.2.523a1.814 1.814 0 00-.414-.169 2.215 2.215 0 00-.64-.083 1.4 1.4 0 00-.345.04.885.885 0 00-.278.119.6.6 0 00-.19.2.577.577 0 00-.07.288.609.609 0 00.073.312.718.718 0 00.205.222 1.736 1.736 0 00.308.176c.117.053.246.106.388.159.2.08.382.16.547.239a1.8 1.8 0 01.431.285 1.138 1.138 0 01.282.395 1.383 1.383 0 01.1.553 1.085 1.085 0 01-.441.929 2.068 2.068 0 01-1.243.325 3.226 3.226 0 01-.5-.036 3.714 3.714 0 01-.408-.086 2.407 2.407 0 01-.308-.106 1.595 1.595 0 01-.2-.1l.193-.531a2.88 2.88 0 00.464.193 2.41 2.41 0 00.758.114z"/><path data-name="Path 39" d="M32.459 49.095a2.189 2.189 0 01.132-.8 1.666 1.666 0 01.351-.567 1.436 1.436 0 01.5-.339 1.571 1.571 0 01.583-.113 1.328 1.328 0 011.067.435 2 2 0 01.372 1.322v.1a1.03 1.03 0 01-.007.116h-2.36a1.256 1.256 0 00.312.816 1.139 1.139 0 00.849.279 2.26 2.26 0 00.547-.057 1.945 1.945 0 00.335-.109l.086.517a1.8 1.8 0 01-.394.126 2.832 2.832 0 01-.64.066 2.037 2.037 0 01-.779-.136 1.457 1.457 0 01-.54-.375 1.527 1.527 0 01-.315-.567 2.4 2.4 0 01-.099-.714zm2.367-.339a1.036 1.036 0 00-.209-.684.721.721 0 00-.594-.268.81.81 0 00-.374.083.86.86 0 00-.275.216.962.962 0 00-.176.3 1.519 1.519 0 00-.083.351h1.711z"/><path data-name="Path 40" d="M37.759 47.292a1.71 1.71 0 01.182.01c.068.006.136.015.2.026l.182.033c.055.012.1.021.123.03l-.106.537a1.977 1.977 0 00-.677-.1 1.624 1.624 0 00-.341.036c-.113.024-.187.042-.222.05v2.9h-.617v-3.3a4.152 4.152 0 01.544-.149 3.491 3.491 0 01.732-.073z"/><path data-name="Path 41" d="M42.113 47.365a17.613 17.613 0 01-.607 1.857q-.349.888-.673 1.591h-.557q-.325-.7-.673-1.591a17.36 17.36 0 01-.606-1.857h.663q.079.324.189.693t.232.729c.082.241.165.473.248.7s.164.426.239.6a17.93 17.93 0 00.487-1.3c.081-.242.159-.485.232-.729s.136-.477.189-.693z"/><path data-name="Path 42" d="M43.218 46.742a.4.4 0 01-.282-.109.433.433 0 010-.59.419.419 0 01.564 0 .434.434 0 010 .59.4.4 0 01-.282.109zm.312 4.071h-.617v-3.448h.617z"/><path data-name="Path 43" d="M46.219 50.892a1.892 1.892 0 01-.733-.132 1.482 1.482 0 01-.531-.372 1.552 1.552 0 01-.321-.567 2.355 2.355 0 01-.106-.726 2.193 2.193 0 01.116-.729 1.727 1.727 0 01.328-.574 1.461 1.461 0 01.52-.377 1.689 1.689 0 01.686-.136 2.771 2.771 0 01.465.04 2.18 2.18 0 01.444.126l-.139.523a1.477 1.477 0 00-.322-.106 1.819 1.819 0 00-.387-.04.984.984 0 00-.793.325 1.433 1.433 0 00-.275.948 1.944 1.944 0 00.063.511 1.039 1.039 0 00.2.4.884.884 0 00.348.255 1.324 1.324 0 00.517.09 1.961 1.961 0 00.444-.047 1.594 1.594 0 00.312-.1l.086.517a.647.647 0 01-.153.063 2.1 2.1 0 01-.225.053c-.084.015-.173.029-.268.04s-.186.015-.276.015z"/><path data-name="Path 44" d="M47.714 49.095a2.189 2.189 0 01.132-.8 1.658 1.658 0 01.351-.567 1.429 1.429 0 01.5-.339 1.571 1.571 0 01.583-.113 1.328 1.328 0 011.067.435 2 2 0 01.372 1.322v.1a.909.909 0 01-.007.116h-2.36a1.256 1.256 0 00.312.816 1.139 1.139 0 00.849.279 2.26 2.26 0 00.547-.057 1.946 1.946 0 00.335-.109l.086.517a1.812 1.812 0 01-.395.126 2.832 2.832 0 01-.64.066 2.039 2.039 0 01-.779-.136 1.457 1.457 0 01-.54-.375 1.527 1.527 0 01-.315-.567 2.4 2.4 0 01-.098-.714zm2.367-.339a1.036 1.036 0 00-.209-.684.722.722 0 00-.594-.268.81.81 0 00-.374.083.862.862 0 00-.275.216.963.963 0 00-.176.3 1.489 1.489 0 00-.083.351h1.711z"/><path data-name="Path 45" d="M52.541 50.372a1.223 1.223 0 00.56-.1.336.336 0 00.182-.318.423.423 0 00-.179-.358 2.833 2.833 0 00-.59-.3 7.654 7.654 0 01-.381-.163 1.331 1.331 0 01-.316-.2.844.844 0 01-.212-.271.966.966 0 01.259-1.117 1.445 1.445 0 01.921-.268 2.545 2.545 0 01.292.017 3.459 3.459 0 01.494.089c.064.017.113.034.149.047l-.113.53a1.6 1.6 0 00-.312-.109 2.008 2.008 0 00-.511-.057.936.936 0 00-.451.1.341.341 0 00-.193.322.441.441 0 00.044.2.462.462 0 00.133.156 1.051 1.051 0 00.222.129c.088.04.194.082.318.126.163.061.309.122.437.182a1.345 1.345 0 01.328.209.8.8 0 01.209.288 1.05 1.05 0 01.073.414.823.823 0 01-.354.723 1.766 1.766 0 01-1.011.245 2.635 2.635 0 01-.716-.076 3.485 3.485 0 01-.351-.116l.112-.53c.071.027.184.066.339.119a1.955 1.955 0 00.618.087z"/></g><g data-name="Group 7" fill="#fff"><path data-name="Path 46" d="M5.857 42.536a6.365 6.365 0 01-2.389-.431 5.07 5.07 0 01-1.85-1.258 5.658 5.658 0 01-1.195-2.042A8.4 8.4 0 010 36.03a7.555 7.555 0 01.476-2.775 6.018 6.018 0 011.285-2.039 5.442 5.442 0 011.887-1.257 6.133 6.133 0 012.3-.432 8.165 8.165 0 011.392.108 8.6 8.6 0 011.078.252 5.2 5.2 0 01.746.287 4.338 4.338 0 01.4.216l-.5 1.437a2.877 2.877 0 00-.467-.234q-.306-.125-.692-.252a6.3 6.3 0 00-.844-.207 5.306 5.306 0 00-.925-.081 4.447 4.447 0 00-1.779.341A3.684 3.684 0 003 32.383a4.47 4.47 0 00-.853 1.572 6.779 6.779 0 00-.3 2.075 7.414 7.414 0 00.26 2.03 4.447 4.447 0 00.785 1.576 3.512 3.512 0 001.3 1.015 4.323 4.323 0 001.824.359 6.679 6.679 0 001.994-.251 8.706 8.706 0 001.19-.454l.449 1.437a2.5 2.5 0 01-.449.225 6.051 6.051 0 01-.809.261 10.309 10.309 0 01-1.132.216 10 10 0 01-1.402.092z"/><path data-name="Path 47" d="M10.618 42.264V28.611l1.671-.287v4.778a5.653 5.653 0 011-.278 5.738 5.738 0 011.051-.1 4.726 4.726 0 011.85.314 2.9 2.9 0 011.177.88 3.422 3.422 0 01.62 1.356 7.882 7.882 0 01.179 1.743v5.246h-1.675v-4.887a7.963 7.963 0 00-.117-1.473 2.489 2.489 0 00-.386-.988 1.535 1.535 0 00-.719-.549 3.154 3.154 0 00-1.113-.171 4.466 4.466 0 00-.558.036c-.191.024-.374.051-.548.08s-.33.063-.467.1a2.7 2.7 0 00-.3.09v7.76z"/><path data-name="Path 48" d="M19.441 37.612a5.955 5.955 0 01.359-2.164 4.533 4.533 0 01.952-1.536 3.859 3.859 0 011.365-.916 4.26 4.26 0 011.581-.305 3.6 3.6 0 012.893 1.175 5.414 5.414 0 011.006 3.584v.278a2.576 2.576 0 01-.018.314h-6.4a3.416 3.416 0 00.844 2.21 3.089 3.089 0 002.3.754 6.142 6.142 0 001.482-.152 5.318 5.318 0 00.907-.3l.234 1.4a4.925 4.925 0 01-1.069.341 7.6 7.6 0 01-1.733.18 5.5 5.5 0 01-2.111-.368 3.931 3.931 0 01-1.464-1.015 4.146 4.146 0 01-.853-1.526 6.479 6.479 0 01-.275-1.954zm6.413-.916a2.805 2.805 0 00-.566-1.86 1.95 1.95 0 00-1.608-.728 2.2 2.2 0 00-1.015.225 2.393 2.393 0 00-.745.584 2.673 2.673 0 00-.476.826 4.071 4.071 0 00-.225.952z"/><path data-name="Path 49" d="M31.178 41.06a3.289 3.289 0 001.518-.269.912.912 0 00.494-.862 1.145 1.145 0 00-.485-.97 7.71 7.71 0 00-1.6-.808q-.54-.215-1.033-.44a3.619 3.619 0 01-.853-.53 2.3 2.3 0 01-.575-.737 2.351 2.351 0 01-.216-1.06 2.379 2.379 0 01.916-1.967 3.912 3.912 0 012.5-.727 7.047 7.047 0 01.791.045q.395.045.737.108c.227.042.428.088.6.135s.308.09.4.126l-.305 1.437a4.218 4.218 0 00-.844-.3 5.429 5.429 0 00-1.383-.153 2.556 2.556 0 00-1.221.278.923.923 0 00-.521.871 1.182 1.182 0 00.117.538 1.244 1.244 0 00.36.422 2.945 2.945 0 00.6.351q.36.162.862.341.665.252 1.185.494a3.716 3.716 0 01.889.566 2.181 2.181 0 01.566.782 2.838 2.838 0 01.2 1.123 2.227 2.227 0 01-.961 1.958 4.785 4.785 0 01-2.739.665 7.168 7.168 0 01-1.94-.207 9.9 9.9 0 01-.952-.315l.305-1.437q.287.108.916.323a5.282 5.282 0 001.672.219z"/><path data-name="Path 50" d="M36.06 42.264V28.611l1.671-.287v4.778a5.653 5.653 0 011-.278 5.738 5.738 0 011.051-.1 4.726 4.726 0 011.85.314 2.9 2.9 0 011.177.88 3.422 3.422 0 01.62 1.356 7.882 7.882 0 01.179 1.743v5.246h-1.674v-4.887a7.962 7.962 0 00-.117-1.473 2.488 2.488 0 00-.386-.988 1.535 1.535 0 00-.719-.549 3.154 3.154 0 00-1.113-.171 4.472 4.472 0 00-.558.036c-.191.024-.374.051-.548.08s-.33.063-.467.1a2.7 2.7 0 00-.3.09v7.76z"/><path data-name="Path 51" d="M46.176 31.234a1.071 1.071 0 01-.764-.3 1.173 1.173 0 010-1.6 1.132 1.132 0 011.527 0 1.173 1.173 0 010 1.6 1.07 1.07 0 01-.763.3zm.844 11.03h-1.67v-9.341h1.671v9.341z"/><path data-name="Path 52" d="M52.354 32.726c.144 0 .308.008.494.026s.368.042.549.072.344.06.494.09a3.223 3.223 0 01.332.081l-.287 1.455a5.626 5.626 0 00-.655-.171 5.766 5.766 0 00-1.177-.1 4.384 4.384 0 00-.925.1q-.458.1-.6.135v7.85h-1.677v-8.946a11.457 11.457 0 011.473-.4 9.456 9.456 0 011.979-.192z"/><path data-name="Path 53" d="M54.247 37.612a5.955 5.955 0 01.359-2.164 4.532 4.532 0 01.952-1.536 3.859 3.859 0 011.365-.916 4.26 4.26 0 011.581-.305 3.6 3.6 0 012.892 1.176 5.411 5.411 0 011.006 3.584v.278a2.574 2.574 0 01-.018.314h-6.4a3.416 3.416 0 00.844 2.21 3.089 3.089 0 002.3.754 6.145 6.145 0 001.482-.152 5.318 5.318 0 00.907-.3l.234 1.4a4.936 4.936 0 01-1.069.341 7.6 7.6 0 01-1.733.18 5.5 5.5 0 01-2.111-.368 3.929 3.929 0 01-1.464-1.015 4.146 4.146 0 01-.853-1.536 6.515 6.515 0 01-.274-1.945zm6.414-.916a2.809 2.809 0 00-.567-1.86 1.95 1.95 0 00-1.608-.728 2.2 2.2 0 00-1.015.225 2.393 2.393 0 00-.745.584 2.686 2.686 0 00-.477.826 4.07 4.07 0 00-.225.952z"/><path data-name="Path 54" d="M72.623 42.536a6.367 6.367 0 01-2.389-.431 5.086 5.086 0 01-1.851-1.258 5.649 5.649 0 01-1.194-2.039 8.406 8.406 0 01-.422-2.775 7.543 7.543 0 01.476-2.775 6.017 6.017 0 011.284-2.039 5.447 5.447 0 011.887-1.257 6.131 6.131 0 012.3-.432 8.172 8.172 0 011.392.108 8.587 8.587 0 011.077.252 5.173 5.173 0 01.746.287 4.417 4.417 0 01.4.216l-.5 1.437a2.876 2.876 0 00-.467-.234q-.3-.125-.691-.252a6.344 6.344 0 00-.844-.207 5.311 5.311 0 00-.925-.081 4.447 4.447 0 00-1.779.341 3.677 3.677 0 00-1.347.988 4.48 4.48 0 00-.854 1.572 6.78 6.78 0 00-.3 2.075 7.371 7.371 0 00.261 2.03 4.446 4.446 0 00.781 1.572 3.516 3.516 0 001.3 1.015 4.321 4.321 0 001.824.359 6.681 6.681 0 001.994-.251 8.664 8.664 0 001.185-.449l.45 1.437a2.532 2.532 0 01-.45.225 6.041 6.041 0 01-.808.261 10.309 10.309 0 01-1.132.216 10.015 10.015 0 01-1.404.089z"/><path data-name="Path 55" d="M85.431 37.594a5.9 5.9 0 01-.323 2.012 4.623 4.623 0 01-.907 1.545 3.991 3.991 0 01-1.392 1 4.6 4.6 0 01-3.521 0 3.988 3.988 0 01-1.392-1 4.614 4.614 0 01-.907-1.545 6.4 6.4 0 010-4.014 4.59 4.59 0 01.907-1.554 3.986 3.986 0 011.392-1 4.6 4.6 0 013.521 0 4 4 0 011.392 1 4.605 4.605 0 01.907 1.554 5.927 5.927 0 01.323 2.002zm-1.742 0a4.017 4.017 0 00-.71-2.506 2.477 2.477 0 00-3.862 0 4.779 4.779 0 000 5.012 2.477 2.477 0 003.862 0 4.018 4.018 0 00.71-2.506z"/><path data-name="Path 56" d="M94.255 41.994q-.576.144-1.517.3a13.056 13.056 0 01-2.184.162 4.632 4.632 0 01-1.814-.314 2.926 2.926 0 01-1.185-.889 3.6 3.6 0 01-.646-1.356 7.06 7.06 0 01-.2-1.733v-5.241h1.671v4.886a4.233 4.233 0 00.538 2.443 2.1 2.1 0 001.815.737c.179 0 .364-.006.556-.018s.371-.027.54-.045.321-.037.458-.054a1.342 1.342 0 00.3-.063v-7.886h1.67z"/><path data-name="Path 57" d="M96.139 33.193q.574-.143 1.528-.3a13.2 13.2 0 012.191-.162 4.731 4.731 0 011.851.314 2.91 2.91 0 011.177.88 3.413 3.413 0 01.619 1.356 7.883 7.883 0 01.179 1.743v5.246h-1.675v-4.891a7.964 7.964 0 00-.117-1.473 2.489 2.489 0 00-.386-.988 1.541 1.541 0 00-.719-.549 3.154 3.154 0 00-1.113-.171c-.179 0-.365.007-.558.018s-.374.028-.547.045-.33.039-.467.063l-.3.054v7.886h-1.67v-9.071z"/><path data-name="Path 58" d="M107.049 32.923h3.544v1.4h-3.539v4.311a5.11 5.11 0 00.109 1.159 1.735 1.735 0 00.322.719 1.167 1.167 0 00.54.368 2.4 2.4 0 00.754.108 3.553 3.553 0 001.212-.171q.459-.171.638-.243l.324 1.383a6.278 6.278 0 01-.88.315 5.011 5.011 0 01-1.438.188 4.356 4.356 0 01-1.572-.243 2.294 2.294 0 01-1-.727 2.913 2.913 0 01-.529-1.195 7.926 7.926 0 01-.153-1.644v-8.333l1.67-.287v2.892z"/><path data-name="Path 59" d="M111.103 44.006a3.219 3.219 0 00.513.171 2.467 2.467 0 00.619.081 2.43 2.43 0 001.545-.441 3.8 3.8 0 001.006-1.428q-1.132-2.156-2.111-4.572a39.581 39.581 0 01-1.626-4.895h1.8q.2.808.477 1.743t.619 1.922q.342.988.737 1.976t.827 1.9q.684-1.887 1.185-3.737t.952-3.808h1.724q-.647 2.641-1.436 5.075t-1.707 4.553a9.522 9.522 0 01-.745 1.392 4.218 4.218 0 01-.854.961 3.118 3.118 0 01-1.05.557 4.493 4.493 0 01-1.321.18 3.317 3.317 0 01-.413-.027c-.145-.018-.285-.042-.423-.071s-.264-.063-.378-.1a1.785 1.785 0 01-.243-.09z"/></g><path data-name="Path 60" d="M109.133 7.772a.316.316 0 00-.012-.058c-.033-.038.045 0-.12-.193a.294.294 0 00-.03-.028.311.311 0 00-.126-.074.409.409 0 00-.177-.035h-.031a.417.417 0 00-.077.011 1.96 1.96 0 00-.343.113 67.239 67.239 0 01-11.187 3.241 65.35 65.35 0 01-4.165-7.129 66.67 66.67 0 01-1.164-2.436l-.307-.677c-.036-.081-.066-.142-.09-.193a.445.445 0 00-.045-.079.318.318 0 00-.047-.067c-.047-.019-.029-.124-.353-.169-.337.045-.321.15-.366.169a1.961 1.961 0 00-.208.394 67.131 67.131 0 01-5.613 10.188 65.734 65.734 0 01-7.912-2.071 71.036 71.036 0 01-3.277-1.17 1.722 1.722 0 00-.366-.117.624.624 0 00-.077-.008h-.01a.358.358 0 00-.17.032c-.015.006-.031.012-.047.02a.571.571 0 00-.113.083.33.33 0 00-.084.112.407.407 0 00-.053.189v.032a1.493 1.493 0 00.128.452 66.7 66.7 0 013.38 11.907c.849 3.43 2.307 6.545 5.291 7.877a7.659 7.659 0 003.272.7 9.169 9.169 0 006.22-2.484 9.15 9.15 0 006.217 2.483 7.686 7.686 0 003.285-.7c2.972-1.326 4.431-4.443 5.274-7.844a64.688 64.688 0 012.214-8.659c.356-1.08.67-1.948.9-2.558.112-.305.2-.546.27-.72a2.517 2.517 0 00.11-.331.424.424 0 00.016-.12.29.29 0 00-.007-.083zm-12.456 4.109a12.56 12.56 0 012.135 6.217 6.146 6.146 0 01-.408 2.237 7.845 7.845 0 01-6.459 4.814 9.165 9.165 0 002.021-5.7 7.65 7.65 0 00-.706-3.286 7.114 7.114 0 00-1.677-2.3 14.544 14.544 0 014.895-2.065l.129-.025c.023.04.047.073.071.108zm-11.583-.1l.11.021a14.572 14.572 0 014.917 2.07 7.171 7.171 0 00-1.686 2.313 7.643 7.643 0 00-.7 3.273 9.153 9.153 0 002.024 5.7 7.84 7.84 0 01-6.457-4.8 6.16 6.16 0 01-.413-2.248 12.57 12.57 0 012.149-6.239.666.666 0 01.057-.094zm7.324 4.779a6.732 6.732 0 01.62 2.9 8.247 8.247 0 01-2.188 5.537 8.238 8.238 0 01-2.19-5.538 6.764 6.764 0 01.615-2.885 6.219 6.219 0 011.576-2.116 6.173 6.173 0 011.568 2.098zM90.846 1.569l.006-.012a67.576 67.576 0 005.2 9.4 14.889 14.889 0 00-5.2 2.289 14.9 14.9 0 00-5.2-2.289 66.394 66.394 0 004.017-6.922 73.134 73.134 0 001.177-2.466zm-9.1 25.677c-2.569-1.127-3.955-3.916-4.773-7.228a65.293 65.293 0 00-2.234-8.727 72.23 72.23 0 00-.913-2.593l-.029-.078a67.426 67.426 0 0010.328 2.971 13.217 13.217 0 00-2.163 6.509 7.08 7.08 0 00.471 2.569 8.745 8.745 0 007.274 5.4 8.235 8.235 0 01-5.073 1.787 6.748 6.748 0 01-2.886-.61zm22.974-7.2c-.81 3.284-2.2 6.073-4.754 7.194a6.767 6.767 0 01-2.9.621 8.23 8.23 0 01-5.075-1.788 8.747 8.747 0 007.28-5.415 7.108 7.108 0 00.464-2.559 13.212 13.212 0 00-2.162-6.508 66.689 66.689 0 007.654-2.029c1.1-.362 1.977-.683 2.593-.913l.08-.029a66.728 66.728 0 00-3.175 11.425z" fill="#e27866"/></g></svg>